<svg width="18" height="16" viewBox="0 0 18 16" fill="none" xmlns="http://www.w3.org/2000/svg">
<g clip-path="url(#clip0_2258_3)">
<path d="M3.69101 16.0012C2.90908 16.0012 2.27528 15.4379 2.27528 14.7428C2.27528 14.0479 2.90908 13.4844 3.69101 13.4844C4.47294 13.4844 5.10674 14.0479 5.10674 14.7428C5.10575 15.4375 4.47255 16.0005 3.69101 16.0012ZM14.309 16.0012C13.5271 16.0012 12.8933 15.4379 12.8933 14.7428C12.8933 14.0479 13.5271 13.4844 14.309 13.4844C15.0909 13.4844 15.7247 14.0479 15.7247 14.7428C15.7237 15.4375 15.0905 16.0005 14.309 16.0012ZM18 13.8439C17.9996 14.1666 17.7055 14.4278 17.3427 14.4282H16.4022C16.2297 13.52 15.3449 12.8552 14.3088 12.8552C13.2725 12.8552 12.3876 13.52 12.2152 14.4282H10.2883V10.1331H18V13.8439ZM15.004 7.31952C15.1881 7.3197 15.3637 7.38834 15.4883 7.50878L17.5487 9.50421H10.2879V7.31952H15.004ZM0 3.42872C0.000395014 3.10621 0.294483 2.8448 0.657303 2.84445H8.92317C9.28599 2.8448 9.57988 3.10621 9.58047 3.42872V14.4282H5.78459C5.61196 13.52 4.72713 12.8552 3.69101 12.8552C2.65489 12.8552 1.77006 13.52 1.59744 14.4282H0.657303C0.294483 14.4278 0.000395014 14.1666 0 13.8439V3.42872Z" fill="#FF6600"/>
</g>
<defs>
<clipPath id="clip0_2258_3">
<rect width="18" height="16" fill="white"/>
</clipPath>
</defs>
</svg>
